<?xml version="1.0" encoding="UTF-8" standalone="no"?> <svg width="64" height="64" viewBox="0 0 64 64" fill="none" xmlns="http://www.w3.org/2000/svg">
<path d="M32 7.53003C17.94 7.53003 3 11.13 3 17.81C3 18.97 3.51 20.71 5.92 22.47C6.09032 22.5929 6.295 22.659 6.505 22.659C6.715 22.659 6.91968 22.5929 7.09 22.47C16.6 15.47 47.28 15.55 56.97 22.47C57.1396 22.5755 57.3353 22.6314 57.535 22.6314C57.7347 22.6314 57.9304 22.5755 58.1 22.47C60.5 20.71 61 19 61 17.81C61 11.13 46.06 7.53003 32 7.53003Z" fill="#4D4D4D"/>
<path d="M60 16.8101C59.7348 16.8101 59.4804 16.9154 59.2929 17.103C59.1054 17.2905 59 17.5448 59 17.8101C59 21.7301 47.91 26.0901 32 26.0901C16.09 26.0901 5 21.7301 5 17.8101C5 17.5448 4.89464 17.2905 4.70711 17.103C4.51957 16.9154 4.26522 16.8101 4 16.8101C3.73478 16.8101 3.48043 16.9154 3.29289 17.103C3.10536 17.2905 3 17.5448 3 17.8101V25.4601C3.44 39.0901 60.57 39.1001 61 25.4601V17.8101C61 17.5448 60.8946 17.2905 60.7071 17.103C60.5196 16.9154 60.2652 16.8101 60 16.8101Z" fill="#B3B3B3"/>
<path d="M35.85 35.6601C35.8519 34.9293 35.6489 34.2127 35.2642 33.5915C34.8794 32.9702 34.3283 32.4692 33.6733 32.1453C33.0183 31.8213 32.2856 31.6875 31.5584 31.7588C30.8311 31.8301 30.1384 32.1038 29.5588 32.5488C28.9792 32.9939 28.5359 33.5924 28.2792 34.2766C28.0225 34.9607 27.9627 35.7031 28.1065 36.4196C28.2503 37.136 28.592 37.7978 29.0928 38.33C29.5937 38.8621 30.2336 39.2432 30.94 39.4301V48.2101C30.94 48.3414 30.9659 48.4714 31.0161 48.5928C31.0664 48.7141 31.1401 48.8243 31.2329 48.9172C31.3258 49.01 31.436 49.0837 31.5573 49.134C31.6787 49.1842 31.8087 49.2101 31.94 49.2101C32.0713 49.2101 32.2014 49.1842 32.3227 49.134C32.444 49.0837 32.5543 49.01 32.6471 48.9172C32.74 48.8243 32.8136 48.7141 32.8639 48.5928C32.9142 48.4714 32.94 48.3414 32.94 48.2101V39.4301C33.7725 39.2098 34.509 38.7209 35.0352 38.0392C35.5614 37.3575 35.8478 36.5212 35.85 35.6601Z" fill="#F7931E"/>
<path d="M42.26 44.2201C42.2609 43.4638 41.9923 42.7319 41.5023 42.1558C41.0123 41.5797 40.333 41.1971 39.5863 41.0766C38.8397 40.9562 38.0745 41.1058 37.4282 41.4987C36.782 41.8915 36.2968 42.5018 36.06 43.2201H27.94C25.94 38.4201 19.31 42.4201 22.62 46.4101C19.31 50.4101 25.99 54.4101 27.94 49.6001H36.06C38.06 54.4101 44.69 50.4001 41.38 46.4101C41.9434 45.82 42.2584 45.0359 42.26 44.2201V44.2201Z" fill="#CCCCCC"/>
</svg>
