<?xml version="1.0" encoding="UTF-8"?>
<svg width="700pt" height="700pt" version="1.1" viewBox="0 0 700 700" xmlns="http://www.w3.org/2000/svg" xmlns:xlink="http://www.w3.org/1999/xlink">
 <defs>
  <symbol id="f" overflow="visible">
   <path d="m29.312-1.75c-1.5117 0.78125-3.0898 1.3711-4.7344 1.7656-1.6367 0.40625-3.3398 0.60938-5.1094 0.60938-5.3125 0-9.5273-1.4844-12.641-4.4531-3.1055-2.9688-4.6562-7-4.6562-12.094s1.5508-9.125 4.6562-12.094c3.1133-2.9688 7.3281-4.4531 12.641-4.4531 1.7695 0 3.4727 0.19922 5.1094 0.59375 1.6445 0.39844 3.2227 0.99219 4.7344 1.7812v6.5938c-1.5312-1.0391-3.0391-1.8008-4.5156-2.2812-1.4805-0.48828-3.0391-0.73438-4.6719-0.73438-2.9375 0-5.2461 0.94531-6.9219 2.8281-1.6797 1.875-2.5156 4.4648-2.5156 7.7656 0 3.293 0.83594 5.8828 2.5156 7.7656 1.6758 1.875 3.9844 2.8125 6.9219 2.8125 1.6328 0 3.1914-0.23828 4.6719-0.71875 1.4766-0.48828 2.9844-1.2539 4.5156-2.2969z"/>
  </symbol>
  <symbol id="d" overflow="visible">
   <path d="m21.453-17.406c-0.67969-0.3125-1.3516-0.53906-2.0156-0.6875-0.65625-0.15625-1.3203-0.23438-1.9844-0.23438-1.9688 0-3.4844 0.63281-4.5469 1.8906-1.0547 1.2617-1.5781 3.0703-1.5781 5.4219v11.016h-7.6562v-23.922h7.6562v3.9219c0.97656-1.5625 2.1016-2.7031 3.375-3.4219 1.2812-0.71875 2.8125-1.0781 4.5938-1.0781 0.25 0 0.52344 0.011719 0.82812 0.03125 0.30078 0.023438 0.73438 0.070312 1.2969 0.14062z"/>
  </symbol>
  <symbol id="c" overflow="visible">
   <path d="m27.562-12.031v2.1875h-17.891c0.1875 1.793 0.83203 3.1367 1.9375 4.0312 1.1133 0.89844 2.6719 1.3438 4.6719 1.3438 1.6016 0 3.25-0.23438 4.9375-0.70312 1.6875-0.47656 3.4219-1.2031 5.2031-2.1719v5.8906c-1.8047 0.6875-3.6094 1.2031-5.4219 1.5469-1.8125 0.35156-3.6211 0.53125-5.4219 0.53125-4.3359 0-7.7031-1.0977-10.109-3.2969-2.3984-2.207-3.5938-5.2969-3.5938-9.2656 0-3.9062 1.1758-6.9727 3.5312-9.2031 2.3633-2.2383 5.6094-3.3594 9.7344-3.3594 3.7578 0 6.7695 1.1367 9.0312 3.4062 2.2578 2.2617 3.3906 5.2812 3.3906 9.0625zm-7.8594-2.5312c0-1.457-0.42969-2.6289-1.2812-3.5156-0.84375-0.89453-1.9492-1.3438-3.3125-1.3438-1.4922 0-2.6992 0.41797-3.625 1.25-0.91797 0.83594-1.4922 2.0391-1.7188 3.6094z"/>
  </symbol>
  <symbol id="a" overflow="visible">
   <path d="m14.391-10.766c-1.5938 0-2.793 0.27344-3.5938 0.8125-0.80469 0.54297-1.2031 1.3398-1.2031 2.3906 0 0.96875 0.32031 1.7305 0.96875 2.2812 0.64453 0.54297 1.5469 0.8125 2.7031 0.8125 1.4375 0 2.6445-0.51562 3.625-1.5469 0.98828-1.0312 1.4844-2.3203 1.4844-3.875v-0.875zm11.688-2.8906v13.656h-7.7031v-3.5469c-1.0312 1.4492-2.1875 2.5078-3.4688 3.1719s-2.8398 1-4.6719 1c-2.4805 0-4.4961-0.72266-6.0469-2.1719-1.543-1.4453-2.3125-3.3203-2.3125-5.625 0-2.8125 0.96094-4.8672 2.8906-6.1719 1.9375-1.3125 4.9688-1.9688 9.0938-1.9688h4.5156v-0.60938c0-1.207-0.48047-2.0938-1.4375-2.6562-0.94922-0.5625-2.4375-0.84375-4.4688-0.84375-1.6367 0-3.1562 0.16797-4.5625 0.5-1.4062 0.32422-2.7188 0.8125-3.9375 1.4688v-5.8281c1.6445-0.40625 3.2891-0.70703 4.9375-0.90625 1.6562-0.20703 3.3047-0.3125 4.9531-0.3125 4.3203 0 7.4375 0.85547 9.3438 2.5625 1.9141 1.6992 2.875 4.4609 2.875 8.2812z"/>
  </symbol>
  <symbol id="j" overflow="visible">
   <path d="m12.031-30.719v6.7969h7.875v5.4688h-7.875v10.141c0 1.1172 0.21875 1.8711 0.65625 2.2656 0.4375 0.38672 1.3125 0.57812 2.625 0.57812h3.9375v5.4688h-6.5625c-3.0234 0-5.1641-0.62891-6.4219-1.8906-1.2617-1.2578-1.8906-3.3984-1.8906-6.4219v-10.141h-3.7969v-5.4688h3.7969v-6.7969z"/>
  </symbol>
  <symbol id="b" overflow="visible">
   <path d="m19.953-20.422v-12.812h7.6875v33.234h-7.6875v-3.4531c-1.0547 1.4062-2.2148 2.4375-3.4844 3.0938-1.2734 0.65625-2.7422 0.98438-4.4062 0.98438-2.9492 0-5.3711-1.1719-7.2656-3.5156-1.8867-2.3438-2.8281-5.3594-2.8281-9.0469s0.94141-6.7031 2.8281-9.0469c1.8945-2.3438 4.3164-3.5156 7.2656-3.5156 1.6562 0 3.1172 0.33594 4.3906 1 1.2812 0.65625 2.4453 1.6836 3.5 3.0781zm-5.0469 15.484c1.6445 0 2.8945-0.59766 3.75-1.7969 0.86328-1.1953 1.2969-2.9297 1.2969-5.2031 0-2.2812-0.43359-4.0195-1.2969-5.2188-0.85547-1.1953-2.1055-1.7969-3.75-1.7969-1.625 0-2.8711 0.60156-3.7344 1.7969-0.85547 1.1992-1.2812 2.9375-1.2812 5.2188 0 2.2734 0.42578 4.0078 1.2812 5.2031 0.86328 1.1992 2.1094 1.7969 3.7344 1.7969z"/>
  </symbol>
  <symbol id="i" overflow="visible">
   <path d="m16.406-4.9375c1.6328 0 2.8828-0.59766 3.75-1.7969 0.86328-1.1953 1.2969-2.9297 1.2969-5.2031 0-2.2812-0.43359-4.0195-1.2969-5.2188-0.86719-1.1953-2.1172-1.7969-3.75-1.7969-1.6367 0-2.8906 0.60547-3.7656 1.8125-0.875 1.1992-1.3125 2.9336-1.3125 5.2031 0 2.2617 0.4375 3.9961 1.3125 5.2031 0.875 1.1992 2.1289 1.7969 3.7656 1.7969zm-5.0781-15.484c1.0508-1.3945 2.2188-2.4219 3.5-3.0781 1.2812-0.66406 2.7539-1 4.4219-1 2.9453 0 5.3672 1.1719 7.2656 3.5156 1.8945 2.3438 2.8438 5.3594 2.8438 9.0469s-0.94922 6.7031-2.8438 9.0469c-1.8984 2.3438-4.3203 3.5156-7.2656 3.5156-1.668 0-3.1406-0.33594-4.4219-1s-2.4492-1.6914-3.5-3.0781v3.4531h-7.6562v-33.234h7.6562z"/>
  </symbol>
  <symbol id="h" overflow="visible">
   <path d="m0.53125-23.922h7.6562l6.4219 16.234 5.4688-16.234h7.6562l-10.062 26.188c-1.0117 2.6641-2.1953 4.5234-3.5469 5.5781-1.3438 1.0625-3.1211 1.5938-5.3281 1.5938h-4.4219v-5.0156h2.3906c1.3008 0 2.2422-0.21094 2.8281-0.625 0.59375-0.40625 1.0547-1.1484 1.3906-2.2188l0.20312-0.65625z"/>
  </symbol>
  <symbol id="g" overflow="visible">
   <path d="m12.234-25.672v19.453h2.9531c3.3633 0 5.9297-0.83203 7.7031-2.5 1.7695-1.6641 2.6562-4.0859 2.6562-7.2656 0-3.1562-0.88672-5.5547-2.6562-7.2031-1.7617-1.6562-4.3281-2.4844-7.7031-2.4844zm-8.2188-6.2188h8.6719c4.8438 0 8.4453 0.34375 10.812 1.0312 2.375 0.6875 4.4102 1.8594 6.1094 3.5156 1.4883 1.4375 2.5977 3.1016 3.3281 4.9844 0.72656 1.875 1.0938 4 1.0938 6.375 0 2.4062-0.36719 4.5586-1.0938 6.4531-0.73047 1.8867-1.8398 3.5469-3.3281 4.9844-1.7109 1.6484-3.7617 2.8203-6.1562 3.5156-2.3984 0.6875-5.9844 1.0312-10.766 1.0312h-8.6719z"/>
  </symbol>
  <symbol id="m" overflow="visible">
   <path d="m0.65625-23.922h7.6562l5.9531 16.531 5.9375-16.531h7.6719l-9.4219 23.922h-8.3906z"/>
  </symbol>
  <symbol id="e" overflow="visible">
   <path d="m3.6719-23.922h7.6562v23.922h-7.6562zm0-9.3125h7.6562v6.2344h-7.6562z"/>
  </symbol>
  <symbol id="l" overflow="visible">
   <path d="m11.328-3.4531v12.547h-7.6562v-33.016h7.6562v3.5c1.0508-1.3945 2.2188-2.4219 3.5-3.0781 1.2812-0.66406 2.7539-1 4.4219-1 2.9453 0 5.3672 1.1719 7.2656 3.5156 1.8945 2.3438 2.8438 5.3594 2.8438 9.0469s-0.94922 6.7031-2.8438 9.0469c-1.8984 2.3438-4.3203 3.5156-7.2656 3.5156-1.668 0-3.1406-0.33594-4.4219-1s-2.4492-1.6914-3.5-3.0781zm5.0781-15.5c-1.6367 0-2.8906 0.60547-3.7656 1.8125-0.875 1.1992-1.3125 2.9336-1.3125 5.2031 0 2.2617 0.4375 3.9961 1.3125 5.2031 0.875 1.1992 2.1289 1.7969 3.7656 1.7969 1.6328 0 2.8828-0.59766 3.75-1.7969 0.86328-1.1953 1.2969-2.9297 1.2969-5.2031 0-2.2812-0.43359-4.0195-1.2969-5.2188-0.86719-1.1953-2.1172-1.7969-3.75-1.7969z"/>
  </symbol>
  <symbol id="k" overflow="visible">
   <path d="m27.734-14.562v14.562h-7.7031v-11.156c0-2.0625-0.046875-3.4844-0.14062-4.2656-0.085937-0.78125-0.24219-1.3594-0.46875-1.7344-0.30469-0.5-0.71094-0.88281-1.2188-1.1562-0.51172-0.28125-1.0938-0.42188-1.75-0.42188-1.5938 0-2.8516 0.61719-3.7656 1.8438-0.90625 1.2305-1.3594 2.9375-1.3594 5.125v11.766h-7.6562v-23.922h7.6562v3.5c1.1445-1.3945 2.3633-2.4219 3.6562-3.0781 1.3008-0.66406 2.7383-1 4.3125-1 2.7578 0 4.8516 0.85156 6.2812 2.5469 1.4375 1.6875 2.1562 4.1523 2.1562 7.3906z"/>
  </symbol>
 </defs>
 <g>
  <path d="m350 13.125c-152.1 0-271.25 46.121-271.25 105v113.75c0 32.82 52.387 64.207 125.97 81.023 10.781 9.4492 24.852 15.227 40.277 15.227h26.25v7.2188c0 15.32 12.461 27.781 27.781 27.781h42.219v9.1953c-44.152 4.4102-78.75 41.766-78.75 87.055 0 48.246 39.254 87.5 87.5 87.5s87.5-39.254 87.5-87.5c0-45.289-34.598-82.652-78.75-87.055v-9.1953h34.43c19.609 0 35.57-15.961 35.57-35.57v-3.6836c108.99-11.785 192.5-48.188 192.5-91.988v-113.75c0-58.887-119.15-105.01-271.25-105.01zm70 446.25c0 38.598-31.402 70-70 70s-70-31.402-70-70 31.402-70 70-70 70 31.402 70 70zm-70-428.75c151.79 0 253.75 45.246 253.75 87.5-1.3398 22.32-23.004 36.277-40.793 46.289-32.734-31.078-77.113-45.648-120.57-54.863-58.887-11.84-125.89-11.84-184.77 0-43.453 9.2148-87.84 23.793-120.57 54.863-16.527-9.1797-34.598-21.062-40.059-40.109-0.48047-2.0664-0.74219-4.1328-0.74219-6.1797 0-42.254 101.96-87.5 253.75-87.5zm189 144.62c-14.973 5.957-30.414 10.684-46.07 14.664-20.613 5.1445-43.031 8.918-64.547 11.227-1.375-7.8594-5.0312-15.27-10.887-20.754-6.5547-6.1172-15.312-9.7227-24.324-9.7578h-94.148c-15.312 0-27.773 12.461-27.773 27.773v2.5977c-29.637-3.3086-56.559-8.4805-81.07-15.715-12.285-3.6914-24.352-7.8594-36.102-12.863l0.007813-0.007813c30.012-25.375 68.934-37.617 106.98-45.711 56.621-11.383 121.25-11.383 177.87 0 34.73 7.2891 69.668 18.242 98.613 39.035 2.9766 2.1797 5.8008 4.3906 8.3828 6.6758-2.2734 1.043-4.6094 1.918-6.9375 2.8359zm-442.75 54.32v-73.176c11.34 11.148 24.5 19.695 38.875 26.828 27.141 12.574 55.711 21.473 85.121 27.641-12.914 5.8789-23.844 16.055-30.074 28.867-7.9453 15.574-8.5039 35.121-1.5938 51.066-54.414-15.23-92.328-39.484-92.328-61.227zm148.75 81.059c-11.805 0-22.488-4.75-30.371-12.371-8.4102-8.2969-13.176-19.48-13.379-31.379 0-24.125 19.625-43.75 43.75-43.75h26.25v87.5zm166.25 16.93c0 9.9648-8.1094 18.07-18.07 18.07h-94.148c-5.6719 0-10.281-4.6094-10.281-10.281v-136.95c0-5.6602 4.6094-10.273 10.281-10.273h94.148c8.4609-0.050781 16.23 6.4219 17.734 14.734-9.0742 0.80469-18.113 1.3398-27.281 1.8008-11.234 0.52344-22.582 0.84766-33.672 0.96094l-34.961 0.003906c-4.8398 0-8.75 3.9102-8.75 8.75v35c0 4.8398 3.9102 8.75 8.75 8.75h35c4.8281 0 8.75 3.9219 8.75 8.75s-3.9219 8.75-8.75 8.75h-35c-4.8398 0-8.75 3.9102-8.75 8.75v35c0 4.8398 3.9102 8.75 8.75 8.75h35c20.012 0.027344 41.098-1.0586 61.25-2.5117zm192.5-171.16v73.148c0 31.973-82.398 67.918-184.59 77.797-22.672 2.1875-46.426 3.2891-69.16 3.2891h-26.25v-17.5h26.25c14.473 0 26.25-11.777 26.25-26.25s-11.777-26.25-26.25-26.25h-26.25v-17.5h26.25c24.402-0.29688 47.082-1.2852 70.84-3.5352 56.27-5.3984 103.37-17.309 144.04-36.363 14.367-7.1328 27.535-15.68 38.875-26.836z"/>
  <path d="m350 446.25c-22.531 0-35 20.695-35 35-0.027344 3.1133-0.32422 8.6992 3.2383 15.305 5.3984 9.7305 16.977 15.32 31.762 15.32 14.789 0 26.363-5.5898 31.762-15.328 3.4219-6.1953 3.3008-12.227 3.2383-15.297 0-14.305-12.469-35-35-35zm16.449 41.809c-3.2461 5.8633-13.402 6.3164-16.449 6.3164s-13.203-0.45312-16.449-6.3086c-1.3203-2.4688-1.0508-6.8164-1.0508-6.8164 0-4.9805 5.207-17.5 17.5-17.5s17.5 12.52 17.508 18.367c0.042969 1.6367 0.089844 3.8828-1.0586 5.9414z"/>
  <path d="m533.75 243.25c0 7.25-5.875 13.125-13.125 13.125s-13.125-5.875-13.125-13.125 5.875-13.125 13.125-13.125 13.125 5.875 13.125 13.125"/>
  <path d="m481.25 254.62c0 7.25-5.875 13.125-13.125 13.125s-13.125-5.875-13.125-13.125 5.875-13.125 13.125-13.125 13.125 5.875 13.125 13.125"/>
  <path d="m428.75 263.38c0 7.25-5.875 13.125-13.125 13.125s-13.125-5.875-13.125-13.125 5.875-13.125 13.125-13.125 13.125 5.875 13.125 13.125"/>
  <path d="m319.38 446.25c0 7.25-5.875 13.125-13.125 13.125s-13.125-5.875-13.125-13.125 5.875-13.125 13.125-13.125 13.125 5.875 13.125 13.125"/>
  <path d="m345.62 424.38c0 7.25-5.875 13.125-13.125 13.125s-13.125-5.875-13.125-13.125 5.875-13.125 13.125-13.125 13.125 5.875 13.125 13.125"/>
  <path d="m406.88 446.25c0 7.25-5.875 13.125-13.125 13.125s-13.125-5.875-13.125-13.125 5.875-13.125 13.125-13.125 13.125 5.875 13.125 13.125"/>
  <path d="m380.62 424.38c0 7.25-5.875 13.125-13.125 13.125s-13.125-5.875-13.125-13.125 5.875-13.125 13.125-13.125 13.125 5.875 13.125 13.125"/>
  <use x="70" y="691.25" xlink:href="#f"/>
  <use x="102.109375" y="691.25" xlink:href="#d"/>
  <use x="123.683594" y="691.25" xlink:href="#c"/>
  <use x="153.355469" y="691.25" xlink:href="#a"/>
  <use x="182.878906" y="691.25" xlink:href="#j"/>
  <use x="203.792969" y="691.25" xlink:href="#c"/>
  <use x="233.464844" y="691.25" xlink:href="#b"/>
  <use x="280.011719" y="691.25" xlink:href="#i"/>
  <use x="311.328125" y="691.25" xlink:href="#h"/>
  <use x="355.078125" y="691.25" xlink:href="#g"/>
  <use x="391.394531" y="691.25" xlink:href="#a"/>
  <use x="420.917969" y="691.25" xlink:href="#m"/>
  <use x="449.4375" y="691.25" xlink:href="#e"/>
  <use x="464.433594" y="691.25" xlink:href="#b"/>
  <use x="510.980469" y="691.25" xlink:href="#f"/>
  <use x="543.089844" y="691.25" xlink:href="#a"/>
  <use x="572.613281" y="691.25" xlink:href="#d"/>
  <use x="594.1875" y="691.25" xlink:href="#a"/>
  <use x="623.710938" y="691.25" xlink:href="#l"/>
  <use x="655.027344" y="691.25" xlink:href="#e"/>
  <use x="670.023438" y="691.25" xlink:href="#k"/>
 </g>
</svg>
